<svg xmlns="http://www.w3.org/2000/svg" version="1.1" xmlns:xlink="http://www.w3.org/1999/xlink" xmlns:svgjs="http://svgjs.dev/svgjs" width="2000" height="791" viewBox="0 0 2000 791"><g transform="matrix(1,0,0,1,-16.03143883544635,-14.149035773812216)"><svg viewBox="0 0 399 158" data-background-color="#ffffff" preserveAspectRatio="xMidYMid meet" height="791" width="2000" xmlns="http://www.w3.org/2000/svg" xmlns:xlink="http://www.w3.org/1999/xlink"><g id="tight-bounds" transform="matrix(1,0,0,1,3.198272047671537,2.826229648877785)"><svg viewBox="0 0 395.52 154.71088167264412" height="154.71088167264412" width="395.52"><g><svg viewBox="0 0 687.2171288357217 268.8105984595408" height="154.71088167264412" width="395.52"><g><rect width="17.924742644448" height="268.8105984595408" x="294.28534476551306" y="0" fill="#223c84" opacity="1" stroke-width="0" stroke="transparent" fill-opacity="1" class="rect-yte-0" data-fill-palette-color="primary" rx="1%" id="yte-0" data-palette-color="#223c84"></rect></g><g transform="matrix(1,0,0,1,359.13349747396103,0.6686830807451258)"><svg viewBox="0 0 328.08363136176064 267.47323229805056" height="267.47323229805056" width="328.08363136176064"><g id="textblocktransform"><svg viewBox="0 0 328.08363136176064 267.47323229805056" height="267.47323229805056" width="328.08363136176064" id="textblock"><g><svg viewBox="0 0 328.08363136176064 198.76399999999998" height="198.76399999999998" width="328.08363136176064"><g transform="matrix(1,0,0,1,0,0)"><svg width="328.08363136176064" viewBox="1.98 -35.18 58.59 35.5" height="198.76399999999998" data-palette-color="#223c84"><path d="M11.18 0.32L11.18 0.32Q6.4 0.32 4.37-1.12 2.34-2.56 2.22-5.86L2.22-5.86Q1.98-11.79 1.98-17.44 1.98-23.1 2.22-29.03L2.22-29.03Q2.34-32.32 4.37-33.75 6.4-35.18 11.18-35.18L11.18-35.18Q15.94-35.18 18.02-33.75 20.09-32.32 20.12-29.03L20.12-29.03Q20.26-23.07 20.26-17.43 20.26-11.79 20.12-5.86L20.12-5.86Q20.09-2.56 18.02-1.12 15.94 0.32 11.18 0.32ZM11.18-2.61L11.18-2.61Q14.21-2.61 15.43-3.23 16.65-3.86 16.72-5.27L16.72-5.27Q17.07-11.38 17-17.53 16.94-23.68 16.72-29.59L16.72-29.59Q16.65-31.03 15.41-31.64 14.16-32.25 11.18-32.25L11.18-32.25Q8.15-32.25 6.92-31.64 5.69-31.03 5.62-29.59L5.62-29.59Q5.27-23.68 5.31-17.53 5.35-11.38 5.62-5.27L5.62-5.27Q5.69-3.86 6.92-3.23 8.15-2.61 11.18-2.61ZM33.25 0.32L33.25 0.32Q28.54 0.32 26.44-1.12 24.34-2.56 24.31-5.86L24.31-5.86Q23.97-20.36 24.31-34.86L24.31-34.86 27.71-34.86Q27.56-27.64 27.51-20.08 27.46-12.52 27.59-5.27L27.59-5.27Q27.59-2.61 33.25-2.61L33.25-2.61Q36.18-2.61 37.47-3.27 38.77-3.93 38.77-5.27L38.77-5.27Q38.89-12.52 38.89-20.08 38.89-27.64 38.77-34.86L38.77-34.86 42.16-34.86Q42.45-20.36 42.16-5.86L42.16-5.86Q42.14-2.56 40.04-1.12 37.94 0.32 33.25 0.32ZM49.82-16.02L49.82 0 46.43 0 46.43-34.86 60.57-34.86 60.57-31.74 49.82-31.74 49.82-19.14 59.86-19.14 59.86-16.02 49.82-16.02Z" opacity="1" transform="matrix(1,0,0,1,0,0)" fill="#223c84" class="wordmark-text-0" data-fill-palette-color="primary" id="text-0"></path></svg></g></svg></g><g transform="matrix(1,0,0,1,0,245.68741006399998)"><svg viewBox="0 0 274.2779158184319 21.785822234050595" height="21.785822234050595" width="274.2779158184319"><g transform="matrix(1,0,0,1,0,0)"><svg width="274.2779158184319" viewBox="3.2 -36.65 466.40000000000003 37.05" height="21.785822234050595" data-palette-color="#223c84"><path d="M13.95 0.3L13.95 0.3Q10.9 0.3 8.47-0.78 6.05-1.85 4.63-4.23 3.2-6.6 3.2-10.6L3.2-10.6 3.2-25.65Q3.2-29.65 4.63-32.02 6.05-34.4 8.47-35.48 10.9-36.55 13.95-36.55L13.95-36.55Q17-36.55 19.45-35.48 21.9-34.4 23.33-32.02 24.75-29.65 24.75-25.65L24.75-25.65 24.75-10.6Q24.75-6.6 23.33-4.23 21.9-1.85 19.45-0.78 17 0.3 13.95 0.3ZM13.95-3.5L13.95-3.5Q17.05-3.5 18.8-5.23 20.55-6.95 20.55-10.6L20.55-10.6 20.55-25.65Q20.55-29.3 18.8-31.03 17.05-32.75 13.95-32.75L13.95-32.75Q10.85-32.75 9.13-31.03 7.4-29.3 7.4-25.65L7.4-25.65 7.4-10.6Q7.4-6.95 9.13-5.23 10.85-3.5 13.95-3.5ZM42.25 0.3L42.25 0.3Q39.15 0.3 36.7-0.78 34.25-1.85 32.8-4.23 31.35-6.6 31.35-10.6L31.35-10.6 31.35-35.1Q31.35-35.85 31.97-36.2 32.6-36.55 33.45-36.55L33.45-36.55Q34.25-36.55 34.9-36.2 35.55-35.85 35.55-35.1L35.55-35.1 35.55-10.6Q35.55-6.95 37.3-5.23 39.05-3.5 42.25-3.5L42.25-3.5Q45.4-3.5 47.17-5.23 48.95-6.95 48.95-10.6L48.95-10.6 48.95-35.1Q48.95-35.85 49.6-36.2 50.25-36.55 51.05-36.55L51.05-36.55Q51.85-36.55 52.5-36.2 53.15-35.85 53.15-35.1L53.15-35.1 53.15-10.6Q53.15-6.6 51.7-4.23 50.25-1.85 47.77-0.78 45.3 0.3 42.25 0.3ZM78 0L62 0Q61.3 0 60.7-0.38 60.09-0.75 60.09-1.5L60.09-1.5 60.09-35.1Q60.09-35.85 60.77-36.2 61.45-36.55 62.2-36.55L62.2-36.55Q63-36.55 63.65-36.2 64.3-35.85 64.3-35.1L64.3-35.1 64.3-3.8 78-3.8Q78.7-3.8 79.02-3.23 79.34-2.65 79.34-1.9L79.34-1.9Q79.34-1.2 79.02-0.6 78.7 0 78 0L78 0ZM93.19 0.3L93.19 0.3Q90.09 0.3 87.64-0.78 85.19-1.85 83.74-4.23 82.29-6.6 82.29-10.6L82.29-10.6 82.29-35.1Q82.29-35.85 82.92-36.2 83.54-36.55 84.39-36.55L84.39-36.55Q85.19-36.55 85.84-36.2 86.49-35.85 86.49-35.1L86.49-35.1 86.49-10.6Q86.49-6.95 88.24-5.23 89.99-3.5 93.19-3.5L93.19-3.5Q96.34-3.5 98.12-5.23 99.89-6.95 99.89-10.6L99.89-10.6 99.89-35.1Q99.89-35.85 100.54-36.2 101.19-36.55 101.99-36.55L101.99-36.55Q102.79-36.55 103.44-36.2 104.09-35.85 104.09-35.1L104.09-35.1 104.09-10.6Q104.09-6.6 102.64-4.23 101.19-1.85 98.72-0.78 96.24 0.3 93.19 0.3ZM131.79 0.3L131.79 0.3Q128.69 0.3 126.24-0.78 123.79-1.85 122.34-4.23 120.89-6.6 120.89-10.6L120.89-10.6 120.89-35.1Q120.89-35.85 121.51-36.2 122.14-36.55 122.99-36.55L122.99-36.55Q123.79-36.55 124.44-36.2 125.09-35.85 125.09-35.1L125.09-35.1 125.09-10.6Q125.09-6.95 126.84-5.23 128.59-3.5 131.79-3.5L131.79-3.5Q134.94-3.5 136.71-5.23 138.49-6.95 138.49-10.6L138.49-10.6 138.49-35.1Q138.49-35.85 139.14-36.2 139.79-36.55 140.59-36.55L140.59-36.55Q141.39-36.55 142.04-36.2 142.69-35.85 142.69-35.1L142.69-35.1 142.69-10.6Q142.69-6.6 141.24-4.23 139.79-1.85 137.31-0.78 134.84 0.3 131.79 0.3ZM151.74 0L151.74 0Q150.99 0 150.31-0.38 149.64-0.75 149.64-1.5L149.64-1.5 149.64-35.1Q149.64-35.9 150.31-36.23 150.99-36.55 151.74-36.55L151.74-36.55Q152.53-36.55 153.09-36.25 153.64-35.95 154.09-35.38 154.53-34.8 154.99-33.9L154.99-33.9 167.39-9.55 167.39-35.1Q167.39-35.85 168.06-36.2 168.74-36.55 169.49-36.55L169.49-36.55Q170.29-36.55 170.94-36.2 171.59-35.85 171.59-35.1L171.59-35.1 171.59-1.5Q171.59-0.75 170.94-0.38 170.29 0 169.49 0L169.49 0Q168.69 0 168.01-0.55 167.34-1.1 166.89-1.9L166.89-1.9 153.84-27.05 153.84-1.5Q153.84-0.75 153.19-0.38 152.53 0 151.74 0ZM180.83 0L180.83 0Q180.08 0 179.41-0.38 178.73-0.75 178.73-1.5L178.73-1.5 178.73-35.1Q178.73-35.85 179.41-36.2 180.08-36.55 180.83-36.55L180.83-36.55Q181.63-36.55 182.28-36.2 182.93-35.85 182.93-35.1L182.93-35.1 182.93-1.5Q182.93-0.75 182.28-0.38 181.63 0 180.83 0ZM200.23 0.3L200.23 0.3Q199.38 0.3 198.63-0.08 197.88-0.45 197.63-1.15L197.63-1.15 187.38-34.4Q187.33-34.6 187.33-34.8L187.33-34.8Q187.33-35.3 187.73-35.7 188.13-36.1 188.73-36.33 189.33-36.55 189.88-36.55L189.88-36.55Q190.43-36.55 190.85-36.33 191.28-36.1 191.43-35.6L191.43-35.6 200.23-5.9 208.98-35.6Q209.13-36.1 209.53-36.33 209.93-36.55 210.48-36.55L210.48-36.55Q211.08-36.55 211.68-36.3 212.28-36.05 212.68-35.68 213.08-35.3 213.08-34.75L213.08-34.75Q213.08-34.7 213.06-34.6 213.03-34.5 213.03-34.4L213.03-34.4 202.83-1.15Q202.63-0.45 201.88-0.08 201.13 0.3 200.23 0.3ZM237.13 0L219.33 0Q218.63 0 218.03-0.38 217.43-0.75 217.43-1.5L217.43-1.5 217.43-35.05Q217.43-35.8 218.03-36.18 218.63-36.55 219.33-36.55L219.33-36.55 237.13-36.55Q237.93-36.55 238.25-35.95 238.58-35.35 238.58-34.7L238.58-34.7Q238.58-33.95 238.2-33.35 237.83-32.75 237.13-32.75L237.13-32.75 221.63-32.75 221.63-20.05 229.43-20.05Q230.13-20.05 230.5-19.5 230.88-18.95 230.88-18.25L230.88-18.25Q230.88-17.65 230.55-17.1 230.23-16.55 229.43-16.55L229.43-16.55 221.63-16.55 221.63-3.8 237.13-3.8Q237.83-3.8 238.2-3.23 238.58-2.65 238.58-1.85L238.58-1.85Q238.58-1.2 238.25-0.6 237.93 0 237.13 0L237.13 0ZM262.52 0.1L262.52 0.1Q261.93 0.1 261.45-0.4 260.97-0.9 260.63-1.55L260.63-1.55 253.13-16.2 247.32-16.2 247.32-1.5Q247.32-0.75 246.67-0.38 246.02 0 245.22 0L245.22 0Q244.47 0 243.8-0.38 243.13-0.75 243.13-1.5L243.13-1.5 243.13-35.1Q243.13-35.7 243.55-36.1 243.97-36.5 244.63-36.55L244.63-36.55 253.77-36.55Q256.82-36.55 259.35-35.63 261.88-34.7 263.38-32.52 264.88-30.35 264.88-26.55L264.88-26.55Q264.88-23.5 263.9-21.5 262.93-19.5 261.22-18.38 259.52-17.25 257.43-16.8L257.43-16.8 264.82-2.75Q264.93-2.55 264.97-2.38 265.02-2.2 265.02-2.05L265.02-2.05Q265.02-1.5 264.65-1 264.27-0.5 263.7-0.2 263.13 0.1 262.52 0.1ZM247.32-32.75L247.32-19.7 253.77-19.7Q256.88-19.7 258.77-21.2 260.68-22.7 260.68-26.25L260.68-26.25Q260.68-29.8 258.77-31.28 256.88-32.75 253.77-32.75L253.77-32.75 247.32-32.75ZM278.77 0.4L278.77 0.4Q275.57 0.4 273.17-0.58 270.77-1.55 269.47-2.88 268.17-4.2 268.17-5.25L268.17-5.25Q268.17-5.75 268.45-6.28 268.72-6.8 269.15-7.18 269.57-7.55 270.02-7.55L270.02-7.55Q270.62-7.55 271.2-6.95 271.77-6.35 272.65-5.53 273.52-4.7 274.92-4.1 276.32-3.5 278.57-3.5L278.57-3.5Q280.67-3.5 282.22-4.17 283.77-4.85 284.65-6.23 285.52-7.6 285.52-9.7L285.52-9.7Q285.52-11.85 284.62-13.2 283.72-14.55 282.25-15.45 280.77-16.35 279.05-17.05 277.32-17.75 275.55-18.48 273.77-19.2 272.32-20.28 270.87-21.35 269.97-23.05 269.07-24.75 269.07-27.35L269.07-27.35Q269.07-30.1 270.07-31.9 271.07-33.7 272.72-34.75 274.37-35.8 276.3-36.23 278.22-36.65 280.07-36.65L280.07-36.65Q281.42-36.65 282.92-36.45 284.42-36.25 285.77-35.85 287.12-35.45 287.97-34.83 288.82-34.2 288.82-33.35L288.82-33.35Q288.82-32.95 288.62-32.43 288.42-31.9 288.02-31.48 287.62-31.05 287.02-31.05L287.02-31.05Q286.47-31.05 285.67-31.53 284.87-32 283.55-32.48 282.22-32.95 280.07-32.95L280.07-32.95Q278.27-32.95 276.7-32.45 275.12-31.95 274.2-30.8 273.27-29.65 273.27-27.75L273.27-27.75Q273.27-25.95 274.17-24.8 275.07-23.65 276.52-22.9 277.97-22.15 279.72-21.53 281.47-20.9 283.22-20.08 284.97-19.25 286.45-18.05 287.92-16.85 288.82-14.93 289.72-13 289.72-10.1L289.72-10.1Q289.72-6.5 288.3-4.17 286.87-1.85 284.42-0.73 281.97 0.4 278.77 0.4ZM297.27 0L297.27 0Q296.52 0 295.85-0.38 295.17-0.75 295.17-1.5L295.17-1.5 295.17-35.1Q295.17-35.85 295.85-36.2 296.52-36.55 297.27-36.55L297.27-36.55Q298.07-36.55 298.72-36.2 299.37-35.85 299.37-35.1L299.37-35.1 299.37-1.5Q299.37-0.75 298.72-0.38 298.07 0 297.27 0ZM315.22 0L315.22 0Q314.42 0 313.77-0.38 313.12-0.75 313.12-1.5L313.12-1.5 313.12-32.65 305.02-32.65Q304.37-32.65 303.97-33.25 303.57-33.85 303.57-34.65L303.57-34.65Q303.57-35.35 303.92-35.95 304.27-36.55 305.02-36.55L305.02-36.55 325.42-36.55Q326.17-36.55 326.52-35.95 326.87-35.35 326.87-34.65L326.87-34.65Q326.87-33.9 326.52-33.27 326.17-32.65 325.42-32.65L325.42-32.65 317.32-32.65 317.32-1.5Q317.32-0.75 316.67-0.38 316.02 0 315.22 0ZM340.97 0L340.97 0Q340.22 0 339.54-0.38 338.87-0.75 338.87-1.5L338.87-1.5 338.87-14.15Q338.87-14.45 338.77-14.65L338.77-14.65 328.42-33.95Q328.32-34.2 328.27-34.43 328.22-34.65 328.22-34.8L328.22-34.8Q328.22-35.3 328.62-35.7 329.02-36.1 329.59-36.33 330.17-36.55 330.72-36.55L330.72-36.55Q331.27-36.55 331.59-36.27 331.92-36 332.22-35.45L332.22-35.45 340.97-18.3 349.77-35.45Q350.07-36 350.42-36.27 350.77-36.55 351.27-36.55L351.27-36.55Q351.82-36.55 352.39-36.33 352.97-36.1 353.37-35.7 353.77-35.3 353.77-34.8L353.77-34.8Q353.77-34.65 353.72-34.43 353.67-34.2 353.57-33.95L353.57-33.95 343.22-14.65Q343.07-14.45 343.07-14.15L343.07-14.15 343.07-1.5Q343.07-0.75 342.42-0.38 341.77 0 340.97 0ZM370.16 0L370.16 0Q369.41 0 368.74-0.35 368.06-0.7 368.06-1.45L368.06-1.45 368.06-35.05Q368.06-35.8 368.66-36.18 369.26-36.55 369.96-36.55L369.96-36.55 387.61-36.55Q388.36-36.55 388.71-35.95 389.06-35.35 389.06-34.7L389.06-34.7Q389.06-33.95 388.69-33.35 388.31-32.75 387.61-32.75L387.61-32.75 372.26-32.75 372.26-20.05 380.11-20.05Q380.81-20.05 381.19-19.5 381.56-18.95 381.56-18.25L381.56-18.25Q381.56-17.65 381.21-17.1 380.86-16.55 380.11-16.55L380.11-16.55 372.26-16.55 372.26-1.45Q372.26-0.7 371.61-0.35 370.96 0 370.16 0ZM402.56 0.3L402.56 0.3Q399.51 0.3 397.08-0.78 394.66-1.85 393.23-4.23 391.81-6.6 391.81-10.6L391.81-10.6 391.81-25.65Q391.81-29.65 393.23-32.02 394.66-34.4 397.08-35.48 399.51-36.55 402.56-36.55L402.56-36.55Q405.61-36.55 408.06-35.48 410.51-34.4 411.93-32.02 413.36-29.65 413.36-25.65L413.36-25.65 413.36-10.6Q413.36-6.6 411.93-4.23 410.51-1.85 408.06-0.78 405.61 0.3 402.56 0.3ZM402.56-3.5L402.56-3.5Q405.66-3.5 407.41-5.23 409.16-6.95 409.16-10.6L409.16-10.6 409.16-25.65Q409.16-29.3 407.41-31.03 405.66-32.75 402.56-32.75L402.56-32.75Q399.46-32.75 397.73-31.03 396.01-29.3 396.01-25.65L396.01-25.65 396.01-10.6Q396.01-6.95 397.73-5.23 399.46-3.5 402.56-3.5ZM430.5 0.3L430.5 0.3Q427.45 0.3 425.03-0.78 422.61-1.85 421.18-4.23 419.75-6.6 419.75-10.6L419.75-10.6 419.75-25.65Q419.75-29.65 421.18-32.02 422.61-34.4 425.03-35.48 427.45-36.55 430.5-36.55L430.5-36.55Q433.56-36.55 436-35.48 438.45-34.4 439.88-32.02 441.31-29.65 441.31-25.65L441.31-25.65 441.31-10.6Q441.31-6.6 439.88-4.23 438.45-1.85 436-0.78 433.56 0.3 430.5 0.3ZM430.5-3.5L430.5-3.5Q433.61-3.5 435.36-5.23 437.11-6.95 437.11-10.6L437.11-10.6 437.11-25.65Q437.11-29.3 435.36-31.03 433.61-32.75 430.5-32.75L430.5-32.75Q427.41-32.75 425.68-31.03 423.95-29.3 423.95-25.65L423.95-25.65 423.95-10.6Q423.95-6.95 425.68-5.23 427.41-3.5 430.5-3.5ZM458.8 0L449.95 0Q449.1 0 448.58-0.43 448.05-0.85 448.05-1.45L448.05-1.45 448.05-35.1Q448.05-35.7 448.58-36.13 449.1-36.55 449.95-36.55L449.95-36.55 458.8-36.55Q461.85-36.55 464.3-35.48 466.75-34.4 468.18-32.02 469.6-29.65 469.6-25.65L469.6-25.65 469.6-10.9Q469.6-6.9 468.18-4.53 466.75-2.15 464.3-1.07 461.85 0 458.8 0L458.8 0ZM452.25-32.75L452.25-3.8 458.8-3.8Q461.9-3.8 463.65-5.53 465.4-7.25 465.4-10.9L465.4-10.9 465.4-25.65Q465.4-29.3 463.65-31.03 461.9-32.75 458.8-32.75L458.8-32.75 452.25-32.75Z" opacity="1" transform="matrix(1,0,0,1,0,0)" fill="#223c84" class="slogan-text-1" data-fill-palette-color="secondary" id="text-1"></path></svg></g></svg></g></svg></g></svg></g><g transform="matrix(1,0,0,1,0,10.724331879013889)"><svg viewBox="0 0 247.36193470151304 247.36193470151304" height="247.36193470151304" width="247.36193470151304"><g><svg xmlns="http://www.w3.org/2000/svg" xmlns:xlink="http://www.w3.org/1999/xlink" version="1.1" x="0" y="0" viewBox="5 5 90 90" enable-background="new 0 0 100 100" xml:space="preserve" height="247.36193470151304" width="247.36193470151304" class="icon-icon-0" data-fill-palette-color="accent" id="icon-0"><path d="M15 28.75A2.5 2.5 0 0 0 17.5 26.25V7.5A2.5 2.5 0 1 0 12.5 7.5V26.25A2.5 2.5 0 0 0 15 28.75" fill="#223c84" data-fill-palette-color="accent"></path><path d="M22.5 28.75A2.5 2.5 0 0 0 25 26.25V7.5A2.5 2.5 0 1 0 20 7.5V26.25A2.5 2.5 0 0 0 22.5 28.75" fill="#223c84" data-fill-palette-color="accent"></path><path d="M30 5A2.5 2.5 0 0 0 27.5 7.5V28.75A8.76 8.76 0 0 1 21.666 36.99 2.5 2.5 0 0 0 20 39.346V88.75C20 89.439 19.439 90 18.75 90S17.5 89.439 17.5 88.75V39.346A2.5 2.5 0 0 0 15.834 36.99 8.76 8.76 0 0 1 10 28.75V7.5A2.5 2.5 0 1 0 5 7.5V28.75C5 33.947 7.95 38.662 12.5 40.986V88.75C12.5 92.196 15.304 95 18.75 95S25 92.196 25 88.75V40.986C29.549 38.661 32.5 33.946 32.5 28.75V7.5A2.5 2.5 0 0 0 30 5" fill="#223c84" data-fill-palette-color="accent"></path><path d="M50 5C44.486 5 40 9.486 40 15V41.25C40 45.901 43.192 49.821 47.5 50.934V88.75C47.5 92.196 50.304 95 53.75 95S60 92.196 60 88.75V15C60 9.486 55.514 5 50 5M55 88.75C55 89.439 54.439 90 53.75 90S52.5 89.439 52.5 88.75V48.75A2.5 2.5 0 0 0 50 46.25C47.243 46.25 45 44.007 45 41.25V15C45 12.243 47.243 10 50 10S55 12.243 55 15z" fill="#223c84" data-fill-palette-color="accent"></path><path d="M81.25 5C72.694 5 67.5 19.759 67.5 26.25V28.75C67.5 33.948 70.45 38.663 75 40.986V88.75C75 92.196 77.804 95 81.25 95S87.5 92.196 87.5 88.75V40.987C92.05 38.663 95 33.948 95 28.751V26.251C95 19.759 89.806 5 81.25 5M90 28.75A8.76 8.76 0 0 1 84.166 36.989 2.5 2.5 0 0 0 82.5 39.346V88.75C82.5 89.439 81.939 90 81.25 90S80 89.439 80 88.75V39.346A2.5 2.5 0 0 0 78.334 36.989 8.76 8.76 0 0 1 72.5 28.75V26.25C72.5 20.601 77.136 10 81.25 10S90 20.601 90 26.25z" fill="#223c84" data-fill-palette-color="accent"></path></svg></g></svg></g></svg></g><defs></defs></svg><rect width="395.52" height="154.71088167264412" fill="none" stroke="none" visibility="hidden"></rect></g></svg></g></svg>