<?xml version="1.0" standalone="no"?>
<!DOCTYPE svg PUBLIC "-//W3C//DTD SVG 20010904//EN"
 "http://www.w3.org/TR/2001/REC-SVG-20010904/DTD/svg10.dtd">
<svg version="1.0" xmlns="http://www.w3.org/2000/svg"
 width="2000.000000pt" height="2544.000000pt" viewBox="0 0 2000.000000 2544.000000"
 preserveAspectRatio="xMidYMid meet">

<g transform="translate(0.000000,2544.000000) scale(0.100000,-0.100000)"
fill="#000000" stroke="none">
<path d="M4073 24486 c-107 -35 -186 -107 -225 -205 l-23 -56 0 -1570 c0
-1471 1 -1577 18 -1680 36 -217 90 -387 182 -572 164 -331 427 -612 739 -790
l85 -48 3 -3340 3 -3340 22 -82 c161 -597 839 -844 1338 -488 153 109 268 278
327 481 l23 79 3 3346 2 3345 38 18 c70 33 257 164 349 245 274 240 483 580
577 937 62 239 59 143 63 1834 3 1099 1 1563 -7 1609 -25 142 -109 237 -246
277 -159 46 -328 -35 -403 -195 l-26 -56 -6 -1590 c-5 -1432 -7 -1597 -22
-1656 -58 -233 -162 -425 -315 -582 -125 -128 -261 -217 -453 -296 -128 -53
-197 -130 -225 -250 -11 -46 -14 -667 -14 -3479 0 -2927 -2 -3427 -14 -3450
-38 -73 -125 -114 -196 -93 -43 13 -93 51 -113 85 -9 16 -13 773 -17 3481 l-5
3460 -33 67 c-42 85 -100 137 -200 178 -411 169 -653 446 -769 880 -16 60 -18
187 -23 1655 l-5 1590 -29 62 c-34 74 -104 144 -173 174 -61 26 -174 34 -230
15z"/>
<path d="M5103 24486 c-136 -44 -219 -139 -243 -277 -8 -45 -10 -458 -8 -1379
3 -1213 4 -1318 20 -1358 45 -112 131 -188 248 -218 55 -14 75 -15 130 -5 151
28 251 127 280 276 8 44 10 421 8 1385 l-3 1325 -29 62 c-34 74 -104 144 -173
174 -61 26 -174 34 -230 15z"/>
<path d="M6145 24491 c-101 -27 -187 -101 -234 -200 l-26 -56 0 -1360 0 -1360
24 -58 c31 -79 110 -157 188 -188 175 -67 376 17 444 188 l24 58 0 1360 0
1360 -27 57 c-58 125 -161 197 -292 203 -39 3 -84 1 -101 -4z"/>
<path d="M9860 24494 c-393 -50 -726 -239 -956 -543 -79 -104 -184 -313 -219
-436 -57 -197 -55 -119 -55 -2184 0 -2124 -4 -2012 70 -2232 60 -182 133 -312
256 -460 153 -184 384 -339 618 -415 l86 -28 0 -2636 c0 -1799 3 -2655 11
-2696 59 -334 293 -591 627 -687 112 -31 323 -31 437 1 302 86 519 304 608
610 l22 77 0 5220 0 5220 -23 104 c-121 539 -532 950 -1060 1061 -95 20 -342
34 -422 24z m315 -700 c229 -59 418 -248 492 -489 17 -58 18 -262 20 -5184 2
-3719 0 -5135 -8 -5164 -21 -79 -114 -136 -194 -121 -48 9 -95 42 -119 84
l-21 35 -5 2815 -5 2815 -28 57 c-35 71 -119 150 -184 172 -26 10 -96 21 -155
26 -309 26 -538 208 -630 500 l-23 75 0 1910 c0 1821 1 1913 18 1975 50 176
154 315 307 412 90 56 155 79 290 102 43 8 182 -4 245 -20z"/>
<path d="M14117 24485 c-371 -70 -718 -337 -1015 -781 -283 -423 -515 -994
-630 -1554 -56 -271 -66 -374 -66 -730 -1 -361 6 -436 59 -645 114 -446 392
-840 770 -1093 55 -37 121 -78 147 -92 l48 -25 2 -3345 3 -3345 22 -76 c94
-330 340 -564 662 -631 113 -24 274 -20 381 7 78 21 211 81 274 124 168 116
293 296 349 504 l22 82 3 3340 2 3340 69 37 c316 173 606 485 770 828 150 317
201 615 187 1100 -9 330 -46 575 -136 902 -186 681 -508 1289 -875 1653 -272
271 -540 401 -845 411 -84 2 -151 -1 -203 -11z m310 -697 c217 -81 470 -383
682 -813 166 -336 286 -695 353 -1058 17 -93 22 -165 25 -429 7 -437 -11 -549
-122 -775 -139 -282 -347 -470 -667 -602 -100 -42 -158 -94 -200 -179 l-33
-67 -5 -3460 c-4 -2708 -8 -3465 -17 -3481 -20 -34 -70 -72 -113 -85 -71 -21
-158 20 -196 93 -12 23 -14 523 -14 3450 0 2812 -3 3433 -14 3479 -28 120 -97
197 -225 250 -192 79 -328 168 -453 296 -165 169 -272 376 -319 616 -28 146
-28 643 1 840 50 338 182 747 355 1102 198 407 431 698 640 801 117 58 210 64
322 22z"/>
<path d="M3445 10384 c-322 -19 -531 -40 -735 -75 -327 -55 -660 -169 -885
-303 -107 -64 -131 -82 -400 -306 -1051 -873 -1070 -890 -1166 -1035 -86 -130
-137 -251 -183 -433 -74 -290 -78 -418 -73 -2062 4 -1452 4 -1431 56 -1688
116 -563 402 -939 910 -1196 342 -173 679 -264 1161 -313 247 -25 982 -25
1250 0 631 59 1078 188 1403 404 119 80 1255 1033 1359 1141 183 191 286 411
349 752 l24 125 3 1665 c2 1161 0 1698 -8 1775 -24 242 -92 496 -172 647 -140
262 -385 476 -710 619 -315 138 -669 219 -1158 264 -155 15 -877 28 -1025 19z
m885 -95 c533 -31 1004 -140 1336 -307 275 -139 515 -375 624 -614 38 -84 85
-241 109 -363 41 -203 42 -294 39 -1965 -4 -1600 -4 -1605 -26 -1725 -63 -347
-166 -568 -353 -755 -176 -175 -378 -294 -674 -396 -449 -155 -924 -211 -1695
-201 -492 7 -744 29 -1055 93 -464 97 -805 252 -1037 472 -186 178 -284 350
-352 617 -63 252 -60 156 -64 1890 -4 1838 -3 1850 84 2145 149 503 536 819
1214 990 472 119 1135 162 1850 119z"/>
<path d="M3476 9510 c-373 -26 -649 -89 -851 -193 -238 -124 -415 -351 -493
-636 l-27 -96 -3 -1410 c-3 -1537 -4 -1507 53 -1676 68 -200 214 -396 378
-508 149 -102 392 -181 677 -221 230 -32 732 -42 990 -20 531 45 863 176 1069
421 137 164 217 355 241 581 13 129 13 2614 0 2747 -27 255 -114 450 -282 626
-40 43 -100 97 -133 120 -181 128 -449 211 -807 250 -174 19 -635 27 -812 15z
m854 -104 c459 -64 707 -174 884 -394 98 -122 155 -238 193 -394 17 -68 18
-169 18 -1493 l0 -1420 -23 -89 c-28 -111 -94 -251 -156 -333 -69 -91 -192
-202 -279 -251 -227 -130 -570 -197 -1052 -209 -493 -11 -886 39 -1149 146
-281 115 -470 332 -554 640 l-27 96 -3 1365 c-3 1380 -1 1451 33 1585 68 261
242 479 474 595 155 77 382 135 626 159 61 6 126 13 145 15 19 2 197 3 395 1
261 -2 392 -7 475 -19z"/>
<path d="M3550 8644 c-237 -28 -345 -90 -414 -234 l-31 -65 -3 -1175 c-2 -731
1 -1199 7 -1238 13 -85 45 -147 106 -208 99 -99 235 -128 600 -128 365 0 501
29 600 128 62 62 93 124 106 208 13 93 12 2320 -2 2393 -21 117 -96 217 -194
260 -106 47 -181 57 -470 60 -148 2 -286 1 -305 -1z m-257 -1124 c57 -68 57
-60 57 -957 0 -453 -2 -823 -5 -823 -32 0 -101 63 -131 120 -18 33 -19 78 -22
883 l-2 848 39 -20 c21 -11 50 -34 64 -51z"/>
<path d="M8480 10246 c-25 -7 -61 -21 -82 -32 -20 -10 -291 -234 -601 -497
-593 -502 -612 -520 -639 -622 -11 -41 -13 -447 -13 -2170 0 -1982 1 -2128 18
-2245 53 -371 150 -647 304 -862 75 -106 227 -264 329 -344 279 -218 691 -383
1144 -458 308 -51 440 -60 915 -60 452 -1 586 6 885 45 479 62 868 190 1150
378 92 62 1250 1021 1341 1112 244 242 368 566 399 1043 8 108 10 874 8 2306
l-3 2145 -22 65 c-30 87 -69 132 -151 172 l-67 33 -785 0 -785 0 -58 -25 c-44
-19 -183 -130 -595 -475 -295 -247 -562 -474 -593 -505 -104 -104 -94 82 -97
-1812 -1 -912 -6 -1658 -10 -1658 -16 0 -72 41 -87 63 -41 63 -40 16 -45 2132
l-5 2040 -22 54 c-29 71 -93 135 -163 164 l-55 22 -785 2 c-606 1 -795 -1
-830 -11z m1642 -98 c59 -27 96 -70 121 -139 9 -26 13 -501 17 -2064 l5 -2030
27 -57 c83 -177 210 -226 608 -235 258 -6 398 7 521 49 85 28 174 115 210 203
l24 60 5 2035 c5 2232 1 2066 62 2132 73 77 87 78 886 78 765 0 780 -1 852
-59 19 -15 46 -50 60 -77 l25 -48 0 -2281 0 -2280 -23 -129 c-90 -497 -301
-793 -724 -1016 -293 -154 -690 -257 -1178 -306 -220 -22 -901 -31 -1151 -15
-505 32 -852 98 -1184 226 -607 233 -897 620 -955 1270 -7 82 -10 823 -8 2325
l3 2206 25 48 c14 27 41 62 60 77 72 58 73 58 900 56 l755 -2 57 -27z"/>
<path d="M9250 7618 c0 -1253 3 -1830 11 -1893 31 -251 135 -462 313 -633 129
-124 270 -197 492 -255 246 -65 494 -91 884 -90 699 0 1125 107 1371 345 194
187 296 411 319 703 7 86 10 725 8 1875 l-3 1745 -42 3 -43 3 0 -1819 c0
-1995 3 -1899 -59 -2080 -73 -212 -247 -410 -446 -510 -267 -133 -659 -190
-1220 -179 -480 10 -781 66 -1015 187 -182 95 -341 276 -415 475 -64 169 -59
6 -65 2055 l-5 1865 -42 3 -43 3 0 -1803z"/>
<path d="M15682 10244 c-29 -7 -65 -20 -80 -28 -40 -21 -1087 -907 -1153 -976
-39 -40 -63 -75 -75 -112 -18 -51 -19 -151 -19 -2928 l0 -2875 22 -55 c25 -62
79 -122 132 -150 80 -40 116 -41 906 -38 l760 3 55 26 c36 17 239 179 600 479
300 248 565 471 588 494 51 48 85 110 101 184 7 34 11 185 11 417 l0 363 208
4 c206 3 207 3 269 33 80 38 1195 962 1235 1023 64 96 63 85 63 772 l0 625
-24 59 c-45 113 -137 181 -260 193 -31 3 -62 9 -68 12 -8 4 179 166 476 413
479 398 489 407 520 470 27 54 34 84 42 174 14 151 6 1133 -10 1195 -30 116
-107 194 -222 224 -80 22 -3997 21 -4077 -1z m4083 -92 c65 -30 88 -53 117
-115 l23 -52 0 -615 0 -615 -27 -57 c-18 -40 -38 -65 -67 -84 -83 -54 -64 -54
-1258 -54 l-1103 0 0 -440 0 -440 773 0 c836 0 825 1 907 -54 23 -15 47 -44
61 -73 l24 -48 3 -614 c3 -695 3 -690 -68 -761 -72 -72 -47 -70 -921 -70
l-778 0 -3 -887 -3 -888 -24 -53 c-29 -64 -86 -115 -149 -133 -38 -11 -192
-14 -797 -14 l-750 0 -50 23 c-93 43 -130 97 -145 215 -13 98 -13 5517 0 5616
18 136 68 199 183 227 41 10 458 12 2027 11 l1975 -2 50 -23z"/>
<path d="M16450 7130 l0 -2290 40 0 40 0 2 993 3 992 963 3 962 2 0 40 0 40
-965 0 -965 0 0 1210 0 1210 1310 0 1310 0 0 45 0 45 -1350 0 -1350 0 0 -2290z"/>
<path d="M312 1179 c-137 -21 -234 -76 -273 -156 -24 -47 -24 -53 -27 -391 -3
-390 1 -421 63 -485 45 -47 78 -64 168 -86 207 -53 495 -28 619 54 20 14 50
46 65 72 l28 48 0 375 c0 365 -1 376 -22 415 -37 69 -98 110 -210 141 -71 19
-321 27 -411 13z m293 -140 c82 -15 130 -42 162 -91 l28 -41 3 -271 c2 -187 0
-284 -9 -313 -15 -56 -67 -107 -126 -127 -111 -36 -308 -29 -394 14 -21 11
-51 39 -66 62 l-28 42 0 297 0 297 30 43 c49 70 120 95 271 98 39 0 97 -4 129
-10z"/>
<path d="M353 1020 c-77 -16 -131 -56 -152 -113 -7 -18 -11 -131 -11 -296 0
-257 1 -268 22 -311 30 -59 73 -86 161 -100 134 -23 300 1 354 52 49 46 54 81
51 379 l-3 276 -29 37 c-45 60 -100 79 -236 82 -63 2 -134 -1 -157 -6z m248
-159 c17 -21 19 -42 19 -251 0 -277 2 -272 -109 -278 -80 -5 -113 1 -135 24
-14 13 -16 50 -16 252 0 130 4 242 8 248 18 26 50 34 130 32 74 -3 86 -6 103
-27z"/>
<path d="M17090 1184 c-118 -21 -147 -28 -184 -44 -60 -25 -116 -77 -140 -130
-20 -42 -21 -66 -24 -353 -4 -359 3 -426 52 -490 70 -92 198 -131 431 -131
279 1 417 63 460 206 22 76 22 660 -1 737 -27 93 -97 152 -219 186 -58 16
-319 29 -375 19z m312 -159 c56 -20 114 -80 123 -127 3 -18 5 -160 3 -315 l-3
-281 -31 -38 c-42 -52 -87 -73 -188 -86 -65 -9 -107 -9 -172 0 -103 14 -147
34 -188 85 l-31 39 -3 281 c-2 155 0 297 3 315 6 34 53 95 89 114 71 40 302
47 398 13z"/>
<path d="M17074 1017 c-64 -17 -107 -47 -128 -91 -14 -29 -16 -77 -16 -316 0
-272 1 -284 22 -321 16 -29 37 -47 77 -67 53 -25 64 -27 191 -27 115 1 142 4
181 22 59 27 95 66 108 119 15 58 14 492 0 551 -14 55 -60 103 -115 122 -56
19 -257 24 -320 8z m255 -151 c20 -18 21 -28 21 -256 0 -289 7 -275 -132 -275
-132 0 -128 -9 -128 272 0 140 4 232 11 244 16 30 47 39 130 36 59 -2 82 -6
98 -21z"/>
<path d="M18220 1184 c-142 -24 -201 -47 -259 -99 -73 -67 -76 -82 -76 -480 0
-299 2 -355 16 -385 60 -131 189 -183 459 -183 267 0 400 52 457 178 16 35 18
78 21 373 4 379 -1 412 -65 483 -73 80 -166 109 -378 114 -82 2 -161 2 -175
-1z m320 -158 c25 -9 58 -29 74 -44 54 -51 56 -67 56 -373 0 -313 -2 -324 -68
-379 -19 -16 -58 -35 -86 -42 -73 -18 -258 -16 -326 5 -59 17 -111 62 -129
110 -17 44 -15 579 3 620 26 62 85 101 186 121 52 10 245 -2 290 -18z"/>
<path d="M18214 1016 c-65 -16 -107 -46 -130 -93 -17 -34 -19 -64 -19 -313 0
-329 2 -335 100 -385 58 -29 65 -30 190 -30 141 0 186 10 236 52 63 53 64 60
64 363 0 249 -2 279 -19 313 -24 48 -59 73 -132 92 -69 18 -218 18 -290 1z
m255 -150 c20 -18 21 -28 21 -256 0 -289 7 -275 -132 -275 -132 0 -128 -9
-128 272 0 140 4 232 11 244 16 30 47 39 130 36 59 -2 82 -6 98 -21z"/>
<path d="M1177 1157 c-17 -11 -18 -46 -15 -467 l3 -455 28 -48 c49 -84 145
-128 320 -147 226 -26 446 19 529 107 63 66 63 65 66 548 l3 440 -22 18 c-18
14 -42 17 -153 17 -90 0 -137 -4 -149 -12 -15 -12 -17 -52 -19 -396 l-3 -384
-23 -18 c-46 -38 -175 -37 -213 1 -18 18 -19 37 -19 394 0 362 -1 376 -20 395
-18 18 -33 20 -158 20 -96 0 -144 -4 -155 -13z m163 -459 c0 -213 4 -347 11
-373 14 -49 63 -97 115 -112 108 -32 294 -24 374 17 21 11 49 36 61 57 24 38
24 40 27 391 2 228 6 352 13 352 17 0 7 -699 -10 -730 -28 -52 -75 -91 -131
-107 -75 -22 -256 -22 -331 0 -66 20 -121 73 -138 134 -14 50 -15 703 -1 703
6 0 10 -118 10 -332z"/>
<path d="M2338 1159 c-17 -9 -18 -46 -18 -542 0 -401 3 -536 12 -545 17 -17
849 -17 866 0 17 17 17 549 0 566 -17 17 -289 17 -306 0 -8 -8 -12 -56 -12
-150 l0 -138 -105 0 -104 0 -3 396 c-3 378 -4 396 -22 410 -24 17 -280 20
-308 3z m162 -539 l0 -410 270 0 269 0 4 158 3 157 2 -168 2 -167 -282 2 -283
3 -3 418 c-1 276 1 417 8 417 7 0 10 -140 10 -410z"/>
<path d="M3399 1149 c-20 -20 -20 -27 -17 -452 l3 -432 30 -60 c51 -102 139
-146 330 -166 242 -25 466 26 538 123 50 68 51 75 55 535 3 425 3 432 -17 452
-19 19 -33 21 -156 21 -122 0 -137 -2 -155 -20 -19 -19 -20 -33 -20 -395 0
-356 -1 -376 -19 -394 -40 -40 -188 -36 -222 6 -11 13 -15 93 -17 397 -2 341
-4 382 -19 394 -12 8 -60 12 -155 12 -126 0 -140 -2 -159 -21z m171 -459 c0
-285 3 -347 15 -378 38 -89 102 -116 275 -116 129 0 185 12 230 50 65 55 64
54 71 439 l5 350 0 -366 -1 -366 -28 -36 c-16 -21 -46 -46 -68 -58 -58 -29
-187 -42 -289 -30 -132 17 -189 53 -218 140 -15 44 -17 711 -2 711 6 0 10
-120 10 -340z"/>
<path d="M4907 1157 c-17 -11 -18 -46 -15 -467 3 -449 3 -456 25 -497 46 -84
155 -136 327 -154 234 -24 455 23 531 113 61 72 60 63 63 543 l3 440 -22 17
c-18 15 -42 18 -153 18 -98 0 -137 -4 -152 -14 -18 -14 -19 -32 -22 -400 l-3
-386 -26 -17 c-38 -25 -158 -25 -196 0 l-27 17 0 380 c0 367 -1 381 -20 400
-18 18 -33 20 -158 20 -96 0 -144 -4 -155 -13z m163 -469 c0 -313 2 -347 19
-384 32 -69 90 -98 221 -110 93 -8 211 9 264 39 24 13 48 38 60 62 20 38 21
58 24 388 2 211 7 347 12 347 14 0 13 -626 -1 -690 -13 -59 -52 -110 -104
-134 -55 -26 -188 -39 -285 -27 -111 14 -163 40 -198 99 l-27 47 -3 353 c-2
240 0 352 8 352 7 0 10 -111 10 -342z"/>
<path d="M6067 1158 c-16 -12 -17 -47 -15 -553 l3 -540 154 -3 c101 -2 158 1
165 8 7 7 13 107 16 278 l5 267 128 -155 127 -154 0 -97 c0 -54 4 -109 10
-124 l10 -26 157 3 158 3 3 540 c2 499 1 541 -15 553 -25 18 -273 17 -299 -2
-17 -13 -19 -31 -24 -191 l-5 -176 -142 164 c-202 231 -174 211 -306 215 -82
3 -117 0 -130 -10z m460 -452 l288 -324 3 324 c1 211 6 323 12 319 14 -8 14
-822 0 -830 -6 -4 -10 23 -10 74 l0 80 -292 330 c-161 181 -296 330 -300 330
-4 1 -9 -185 -11 -411 l-2 -413 -3 423 c-2 362 0 422 12 422 8 0 144 -146 303
-324z"/>
<path d="M7208 1159 c-16 -9 -18 -27 -18 -137 0 -86 4 -132 12 -140 8 -8 45
-12 100 -12 l88 0 0 -260 0 -260 -89 0 c-63 0 -92 -4 -100 -14 -8 -9 -11 -56
-9 -142 l3 -129 364 -3 c260 -2 368 1 377 9 11 9 14 43 14 135 0 147 2 144
-119 144 l-81 0 0 260 0 260 81 0 c122 0 119 -3 119 150 0 118 -2 130 -19 140
-26 14 -699 13 -723 -1z m612 -139 c0 -6 -47 -10 -120 -10 l-120 0 0 -400 0
-400 121 0 c77 0 118 -4 114 -10 -8 -14 -495 -14 -495 0 0 6 47 10 120 10
l120 0 0 400 0 400 -120 0 c-73 0 -120 4 -120 10 0 6 90 10 250 10 160 0 250
-4 250 -10z"/>
<path d="M8141 1151 c-20 -20 -21 -32 -21 -250 0 -125 5 -252 10 -281 13 -71
196 -532 217 -548 12 -9 81 -12 258 -12 218 0 243 2 257 18 8 9 60 127 114
262 l99 245 3 282 c3 279 3 282 -18 293 -34 18 -308 9 -320 -10 -5 -8 -10
-121 -10 -253 l0 -238 -41 -127 c-23 -70 -46 -133 -52 -140 -6 -7 -22 -12 -36
-10 -24 3 -30 15 -73 138 l-47 135 0 240 c-1 132 -6 247 -11 255 -7 12 -39 16
-159 18 -140 3 -151 2 -170 -17z m226 -671 c114 -280 106 -270 236 -270 49 0
97 5 108 10 24 14 53 70 123 246 l56 141 0 206 c0 135 4 208 11 212 7 5 9 -61
7 -221 l-4 -229 -66 -156 c-75 -178 -88 -201 -124 -217 -34 -16 -192 -15 -224
1 -33 16 -56 60 -131 247 l-62 154 -5 197 c-3 109 -1 206 4 216 5 11 11 -65
14 -197 l6 -215 51 -125z"/>
<path d="M9295 1156 c-20 -14 -20 -27 -20 -538 0 -288 3 -531 7 -540 7 -17 36
-18 401 -18 292 0 396 3 405 12 15 15 16 235 2 258 -8 12 -48 16 -240 18
l-230 3 0 65 0 64 164 0 c140 0 166 2 177 17 19 22 20 226 1 245 -9 9 -59 14
-177 16 l-165 3 0 60 0 59 228 0 c164 0 231 3 240 12 15 15 16 235 2 258 -14
22 -765 28 -795 6z m665 -136 c0 -6 -90 -10 -250 -10 l-250 0 0 -190 0 -190
190 0 c120 0 190 -4 190 -10 0 -6 -70 -10 -190 -10 l-190 0 0 -200 0 -200 250
0 c160 0 250 -4 250 -10 0 -6 -93 -10 -260 -10 l-260 0 0 420 0 420 260 0
c167 0 260 -4 260 -10z"/>
<path d="M10307 1158 c-16 -12 -17 -47 -15 -553 l3 -540 154 -3 c104 -2 158 1
167 9 11 9 14 48 14 175 l0 164 130 0 c118 0 130 -2 140 -19 5 -11 10 -83 10
-163 0 -99 4 -148 12 -156 19 -19 312 -17 327 2 9 11 12 73 9 228 -3 212 -3
213 -30 260 -29 48 -72 81 -122 94 l-29 7 26 19 c35 25 57 101 57 193 0 140
-52 235 -148 271 -40 15 -94 18 -367 21 -255 4 -324 2 -338 -9z m599 -154 c60
-44 69 -67 72 -181 5 -141 -3 -190 -37 -223 l-27 -28 52 -11 c56 -13 98 -45
114 -86 13 -35 13 -288 0 -280 -6 4 -10 62 -10 140 0 129 -1 135 -26 164 -14
17 -42 35 -62 41 -20 5 -143 10 -274 10 l-238 0 0 -180 c0 -113 -4 -180 -10
-180 -7 0 -10 147 -10 421 l0 420 214 -3 c198 -3 217 -5 242 -24z"/>
<path d="M10470 790 l0 -220 198 0 c212 0 229 4 266 53 18 25 21 45 24 155 2
109 0 132 -16 162 -34 63 -62 70 -279 70 l-193 0 0 -220z m334 78 c10 -14 16
-44 16 -80 0 -83 -17 -98 -115 -98 l-75 0 0 100 0 100 79 0 c71 0 82 -2 95
-22z"/>
<path d="M11621 1155 c-101 -22 -172 -80 -200 -164 -6 -20 -11 -98 -11 -185 0
-170 11 -210 70 -259 51 -43 94 -57 257 -81 84 -13 159 -29 168 -36 18 -15 20
-51 3 -68 -9 -9 -74 -12 -229 -12 -120 0 -229 -4 -243 -10 -26 -9 -26 -10 -26
-134 0 -95 3 -126 14 -135 11 -9 98 -11 333 -9 350 4 354 5 428 70 65 56 78
96 83 244 6 178 -7 236 -63 290 -54 52 -102 68 -284 93 -79 11 -148 24 -153
29 -5 5 -8 25 -6 43 l3 34 210 5 c116 3 216 9 223 13 8 6 12 45 12 137 0 118
-2 130 -19 140 -30 16 -491 12 -570 -5z m454 -135 c-4 -6 -81 -10 -199 -10
-184 0 -195 -1 -227 -23 -18 -12 -39 -34 -46 -47 -16 -31 -17 -200 -2 -234 15
-33 35 -40 238 -81 192 -40 224 -52 246 -95 20 -39 21 -210 1 -248 -21 -41
-56 -69 -101 -81 -51 -14 -431 -15 -440 -1 -4 7 67 10 207 10 307 1 328 13
328 197 0 103 -9 131 -50 153 -10 6 -105 28 -211 49 -251 52 -244 46 -244 210
0 134 9 157 75 192 30 17 59 19 233 19 130 0 196 -3 192 -10z"/>
<path d="M12438 1159 c-16 -9 -18 -27 -18 -137 0 -86 4 -132 12 -140 8 -8 45
-12 100 -12 l88 0 0 -260 0 -260 -89 0 c-63 0 -92 -4 -100 -14 -8 -9 -11 -56
-9 -142 l3 -129 364 -3 c260 -2 368 1 377 9 11 9 14 43 14 135 0 147 2 144
-119 144 l-81 0 0 260 0 260 81 0 c122 0 119 -3 119 150 0 118 -2 130 -19 140
-26 14 -699 13 -723 -1z m607 -139 c-4 -6 -55 -10 -121 -10 l-114 0 0 -400 0
-400 121 0 c77 0 118 -4 114 -10 -8 -14 -495 -14 -495 0 0 6 47 10 120 10
l120 0 0 400 0 400 -120 0 c-73 0 -120 4 -120 10 0 6 90 10 251 10 164 0 248
-3 244 -10z"/>
<path d="M13332 1154 c-21 -14 -22 -23 -22 -134 0 -94 3 -122 16 -134 12 -13
40 -16 140 -16 l124 0 1 -377 c1 -208 4 -389 8 -403 l7 -25 169 0 170 0 3 403
2 402 130 0 c163 0 160 -2 160 152 0 163 46 148 -463 148 -366 0 -426 -2 -445
-16z m768 -134 c0 -6 -60 -10 -160 -10 l-160 0 0 -411 c0 -271 -3 -408 -10
-404 -6 4 -10 152 -10 411 l0 404 -155 0 c-97 0 -155 4 -155 10 0 6 115 10
325 10 210 0 325 -4 325 -10z"/>
<path d="M14371 1151 c-20 -20 -21 -32 -21 -196 0 -252 -3 -243 161 -463 l139
-186 0 -111 c0 -73 4 -115 12 -123 8 -8 60 -12 170 -12 145 0 158 1 168 19 5
11 10 68 10 126 l0 107 126 170 c69 94 133 185 142 202 14 26 17 66 20 241 1
126 -1 216 -7 225 -8 12 -39 16 -146 18 -195 5 -185 15 -185 -192 l0 -163 -49
-75 c-73 -112 -89 -112 -162 0 l-49 75 0 161 c0 88 -5 168 -10 176 -7 12 -39
16 -154 18 -135 3 -146 2 -165 -17z m169 -260 l0 -128 90 -126 c50 -69 100
-133 112 -142 30 -20 136 -20 166 1 22 15 108 125 175 223 l37 53 0 129 c0 79
4 129 10 129 14 0 13 -246 -1 -273 -7 -12 -52 -77 -102 -145 -87 -119 -123
-152 -167 -152 -19 0 -20 -6 -20 -129 0 -76 -4 -132 -10 -136 -6 -4 -10 42
-10 129 l0 136 -27 0 c-16 0 -40 8 -56 18 -24 16 -179 219 -207 271 -13 26
-14 284 0 276 6 -4 10 -60 10 -134z"/>
<path d="M15833 1155 l-23 -16 0 -520 c0 -340 4 -527 10 -540 10 -17 23 -19
163 -19 106 0 157 4 165 12 8 8 12 63 12 180 l0 167 158 3 157 3 3 129 c2 86
-1 133 -9 142 -9 11 -45 14 -160 14 l-149 0 0 80 0 80 203 0 c261 0 247 -9
247 148 0 64 -5 124 -10 132 -8 13 -63 15 -377 18 -323 2 -371 1 -390 -13z
m637 -135 c0 -6 -85 -10 -235 -10 l-235 0 0 -220 0 -220 176 0 c114 0 173 -3
169 -10 -4 -6 -73 -10 -176 -10 l-169 0 0 -174 c0 -106 -4 -177 -10 -181 -7
-4 -10 137 -10 414 l0 421 245 0 c157 0 245 -4 245 -10z"/>
<path d="M19070 1163 c-8 -3 -18 -11 -22 -17 -4 -6 -8 -248 -8 -537 0 -444 2
-528 14 -538 11 -9 105 -11 363 -9 398 4 411 6 494 87 77 75 81 98 77 488 l-3
328 -30 54 c-20 37 -45 64 -75 83 -90 57 -116 61 -470 64 -179 2 -332 1 -340
-3z m664 -163 c35 -18 55 -37 70 -65 20 -38 21 -55 21 -330 0 -284 0 -291 -23
-326 -45 -73 -124 -90 -398 -87 l-199 3 -3 418 -2 418 243 -3 c236 -3 244 -4
291 -28z"/>
<path d="M19220 610 l0 -402 233 4 c220 3 234 4 275 26 33 17 49 35 63 68 19
41 20 64 17 317 -3 308 -6 321 -83 361 -37 19 -59 21 -272 24 l-233 3 0 -401z
m417 230 c10 -19 13 -80 11 -243 -4 -264 7 -247 -150 -247 l-108 0 0 260 0
261 117 -3 c114 -3 118 -4 130 -28z"/>
</g>
</svg>
